<svg xmlns="http://www.w3.org/2000/svg" width="900" height="1200" viewBox="0 0 900 1200" fill="none">
  <rect width="900" height="1200" fill="#E7EBEF"/>
  <rect x="82" y="72" width="736" height="1056" rx="44" fill="#F8FAFB"/>
  <circle cx="450" cy="272" r="118" fill="#F0D6C6"/>
  <path d="M305 433c47-52 93-78 145-78s98 26 145 78l41 45c21 24 15 61-13 76l-53 28v331c0 35-29 64-64 64H394c-35 0-64-29-64-64V582l-53-28c-28-15-34-52-13-76l41-45Z" fill="#FFFFFF"/>
  <path d="M330 590h240v88H330z" fill="#D5DEE8"/>
  <path d="M390 678h120v299H390z" fill="#2B3542"/>
  <path d="M323 439c36 32 78 48 127 48 49 0 91-16 127-48" stroke="#A6B8C8" stroke-width="16" stroke-linecap="round"/>
  <text x="450" y="1098" text-anchor="middle" fill="#708293" font-family="Arial, sans-serif" font-size="40" letter-spacing="8">CITY LAYERS</text>
</svg>
